<svg id="Layer_1" data-name="Layer 1" xmlns="http://www.w3.org/2000/svg" viewBox="0 0 437.261 75.671">
  <defs>
    <style>
      .cls-1 {
        fill: #30964f;
      }

      .cls-2 {
        fill: #151011;
      }
    </style>
  </defs>
  <title>Salo_word</title>
  <g>
    <path class="cls-1" d="M122.646,149.273a20.8,20.8,0,0,0,10.781,3.132c4.079,0,7.72-2.258,7.72-7.358,0-3.642-2.113-5.245-6.629-7.722l-4.735-2.623c-5.025-2.769-8.3-6.775-8.3-13.332,0-9.107,7.5-13.842,16.026-13.842a33.185,33.185,0,0,1,10.634,1.822l-.437,7.795a24.226,24.226,0,0,0-9.542-2.185c-4.662,0-7.065,2.476-7.065,5.974,0,3.787,2.549,5.244,5.39,6.847l5.463,3.059c5.973,3.352,8.814,6.556,8.814,13.7,0,10.344-7.357,15.3-17.044,15.3-5.1,0-9.033-.729-11.582-2.259Z" transform="translate(-121.391 -107.53)"/>
    <path class="cls-1" d="M183.178,146.869H165.7l-3.643,12.239H152.73l17.044-50.851h10.2l16.39,50.851h-9.615Zm-1.967-7.14L174.8,115.98h-.146l-6.993,23.749Z" transform="translate(-121.391 -107.53)"/>
    <polygon class="cls-1" points="80.726 0.728 90.05 0.728 90.05 44.148 106.803 44.148 106.803 51.578 80.726 51.578 80.726 0.728"/>
    <path class="cls-1" d="M263.818,146.869H246.337l-3.642,12.239H233.37l17.045-50.851h10.2L277,159.108h-9.616Zm-1.967-7.14-6.41-23.749H255.3L248.3,139.729Z" transform="translate(-121.391 -107.53)"/>
    <polygon class="cls-1" points="201.794 9.18 201.648 9.18 188.901 51.578 182.273 51.578 170.108 9.18 169.962 9.18 169.962 51.578 161.512 51.578 161.512 0.728 175.425 0.728 185.914 38.684 186.059 38.684 196.768 0.728 210.243 0.728 210.243 51.578 201.794 51.578 201.794 9.18"/>
    <path class="cls-1" d="M367.982,146.869H350.5l-3.642,12.239h-9.324l17.044-50.851h10.2l16.389,50.851h-9.615Zm-1.966-7.14-6.41-23.749h-.145l-6.993,23.749Z" transform="translate(-121.391 -107.53)"/>
    <polygon class="cls-1" points="265.677 0.728 276.749 0.728 293.648 40.651 293.794 40.651 293.794 0.728 302.243 0.728 302.243 51.578 291.099 51.578 274.272 11.948 274.127 11.948 274.127 51.578 265.677 51.578 265.677 0.728"/>
    <path class="cls-1" d="M434.051,108.258h13.257c15.88,0,24.329,8.6,24.329,25.425,0,17.12-10.2,25.425-24.329,25.425H434.051Zm9.324,43.711h3.132c10.489,0,15.225-7.139,15.225-18.285S457,115.4,446.507,115.4h-3.132Z" transform="translate(-121.391 -107.53)"/>
    <polygon class="cls-1" points="359.134 0.728 385.867 0.728 385.867 8.159 368.458 8.159 368.458 21.709 384.92 21.709 384.92 29.14 368.458 29.14 368.458 44.148 386.595 44.148 386.595 51.578 359.134 51.578 359.134 0.728"/>
    <path class="cls-1" d="M516.655,108.258h15.88c9.031,0,15.151,4.079,15.151,13.4,0,6.63-4.152,11.073-9.834,11.949v.218c1.894.291,4.007,1.166,5.609,5.9l6.628,19.379h-9.907l-5.026-16.537c-1.238-4.007-3.642-5.318-7.065-5.318h-2.113v21.855h-9.324ZM529.766,130.4c4.953,0,8.3-2.55,8.3-7.722,0-5.828-3.059-7.285-8.3-7.285h-3.788V130.4Z" transform="translate(-121.391 -107.53)"/>
    <path class="cls-1" d="M555.005,108.41a3.594,3.594,0,1,1-3.711,3.582,3.621,3.621,0,0,1,3.689-3.582Zm-.043.72a2.863,2.863,0,0,0,.043,5.723,2.736,2.736,0,0,0,2.731-2.861,2.766,2.766,0,0,0-2.752-2.861Zm-.546,4.718h-.83v-3.56a6.921,6.921,0,0,1,1.376-.132,2.034,2.034,0,0,1,1.245.284.983.983,0,0,1,.348.765.922.922,0,0,1-.742.852v.043a1.03,1.03,0,0,1,.654.875,2.327,2.327,0,0,0,.263.873h-.9a2.926,2.926,0,0,1-.285-.852c-.064-.393-.283-.567-.741-.567h-.393Zm.021-2.01h.393c.459,0,.831-.153.831-.525,0-.327-.24-.546-.765-.546a2,2,0,0,0-.459.044Z" transform="translate(-121.391 -107.53)"/>
    <path class="cls-2" d="M135.115,182.973h-1.554l-3.355-11.756h-.038l-3.412,11.756h-1.574l-3.791-13.234h1.346L126,181.494h.038l3.393-11.754H131l3.336,11.754h.038l3.318-11.754h1.251Z" transform="translate(-121.391 -107.53)"/>
    <path class="cls-2" d="M150.4,169.739h1.308v13.234H150.4Z" transform="translate(-121.391 -107.53)"/>
    <path class="cls-2" d="M164.428,169.739h1.649l6.729,11.641h.038V169.739h1.308v13.234h-1.763l-6.616-11.414h-.038v11.414h-1.308Z" transform="translate(-121.391 -107.53)"/>
    <path class="cls-2" d="M186.951,169.739h3.279c4.739,0,6.616,2.73,6.616,6.6,0,4.8-3.2,6.636-7.583,6.636h-2.312Zm1.308,12.1h1.081c3.753,0,6.2-1.517,6.2-5.574,0-4.038-2.407-5.385-5.364-5.385h-1.915Z" transform="translate(-121.391 -107.53)"/>
    <path class="cls-2" d="M214.745,169.512c3.981,0,5.857,3.261,5.819,6.844-.037,4.058-2.009,6.845-5.819,6.845s-5.782-2.786-5.819-6.845C208.887,172.773,210.764,169.512,214.745,169.512Zm-4.512,6.844c0,2.807,1.4,5.707,4.512,5.707s4.512-2.9,4.512-5.707-1.4-5.706-4.512-5.706S210.233,173.551,210.233,176.356Z" transform="translate(-121.391 -107.53)"/>
    <path class="cls-2" d="M245.305,182.973h-1.554L240.4,171.218h-.038l-3.412,11.756h-1.574l-3.791-13.234h1.346l3.261,11.754h.038l3.393-11.754h1.574l3.336,11.754h.038l3.318-11.754h1.251Z" transform="translate(-121.391 -107.53)"/>
    <path class="cls-2" d="M283.547,179.731a6.888,6.888,0,0,0,1.137-4.019h1.138a8.107,8.107,0,0,1-1.479,4.778l2.256,2.445h-1.668l-1.4-1.477a5.161,5.161,0,0,1-4.019,1.743c-2.237,0-4.341-1.137-4.341-3.7,0-2.029,1.365-3.167,3.128-3.85a5.17,5.17,0,0,1-1.725-3.261c0-1.895,1.82-2.881,3.564-2.881,1.573,0,3.109.871,3.109,2.73,0,2.067-1.592,2.806-3.184,3.6Zm-4.587-3.336a3.56,3.56,0,0,0-2.483,3.052,2.791,2.791,0,0,0,3.071,2.73,4.412,4.412,0,0,0,3.26-1.535Zm.417-1.233c1.156-.551,2.559-1.157,2.559-2.711a1.744,1.744,0,0,0-1.877-1.915,1.979,1.979,0,0,0-2.18,1.934A4.359,4.359,0,0,0,279.377,175.162Z" transform="translate(-121.391 -107.53)"/>
    <path class="cls-2" d="M313.295,169.739h3.279c4.739,0,6.616,2.73,6.616,6.6,0,4.8-3.2,6.636-7.583,6.636h-2.313Zm1.308,12.1h1.081c3.753,0,6.2-1.517,6.2-5.574,0-4.038-2.407-5.385-5.364-5.385H314.6Z" transform="translate(-121.391 -107.53)"/>
    <path class="cls-2" d="M341.088,169.512c3.981,0,5.857,3.261,5.82,6.844-.038,4.058-2.009,6.845-5.82,6.845s-5.781-2.786-5.819-6.845C335.231,172.773,337.107,169.512,341.088,169.512Zm-4.512,6.844c0,2.807,1.4,5.707,4.512,5.707s4.512-2.9,4.512-5.707-1.4-5.706-4.512-5.706S336.576,173.551,336.576,176.356Z" transform="translate(-121.391 -107.53)"/>
    <path class="cls-2" d="M364.6,169.512c3.982,0,5.858,3.261,5.819,6.844-.037,4.058-2.009,6.845-5.819,6.845s-5.781-2.786-5.819-6.845C358.741,172.773,360.617,169.512,364.6,169.512Zm-4.512,6.844c0,2.807,1.4,5.707,4.512,5.707s4.512-2.9,4.512-5.707-1.4-5.706-4.512-5.706S360.085,173.551,360.085,176.356Z" transform="translate(-121.391 -107.53)"/>
    <path class="cls-2" d="M382.932,169.739h3.412c2.35,0,3.886,1,3.886,3.431a3.118,3.118,0,0,1-2.938,3.053v.038c1.061.133,1.289.7,1.706,1.593l2.256,5.12h-1.441L387.9,178.5c-.758-1.706-1.327-1.762-2.578-1.762H384.24v6.237h-1.308Zm1.308,5.858h1.384c1.536,0,3.3-.588,3.3-2.427,0-2.162-1.536-2.294-3.336-2.294H384.24Z" transform="translate(-121.391 -107.53)"/>
    <path class="cls-2" d="M417.988,181.285a5.2,5.2,0,0,0,2.918.778c1.63,0,2.977-.834,2.977-2.711,0-2.6-6.067-2.92-6.067-6.389,0-2.123,1.857-3.45,4.19-3.45a7.891,7.891,0,0,1,2.6.436l-.209,1.194a5.4,5.4,0,0,0-2.407-.492c-1.364,0-2.863.568-2.863,2.276,0,2.654,6.067,2.672,6.067,6.54,0,2.674-2.294,3.736-4.341,3.736a7.579,7.579,0,0,1-3-.568Z" transform="translate(-121.391 -107.53)"/>
    <path class="cls-2" d="M441.155,177.361l-4.909-7.622h1.516L441.8,176.2l4.152-6.464h1.421l-4.909,7.622v5.612h-1.308Z" transform="translate(-121.391 -107.53)"/>
    <path class="cls-2" d="M458.694,181.285a5.2,5.2,0,0,0,2.918.778c1.63,0,2.977-.834,2.977-2.711,0-2.6-6.067-2.92-6.067-6.389,0-2.123,1.857-3.45,4.19-3.45a7.89,7.89,0,0,1,2.6.436l-.208,1.194a5.4,5.4,0,0,0-2.407-.492c-1.364,0-2.863.568-2.863,2.276,0,2.654,6.067,2.672,6.067,6.54,0,2.674-2.294,3.736-4.341,3.736a7.581,7.581,0,0,1-3-.568Z" transform="translate(-121.391 -107.53)"/>
    <path class="cls-2" d="M480.818,170.876h-3.906v-1.137h9.119v1.137h-3.906v12.1h-1.308Z" transform="translate(-121.391 -107.53)"/>
    <path class="cls-2" d="M497.655,169.739h6.482v1.137h-5.174V175.6h4.909v1.138h-4.909v5.1h5.4v1.138h-6.71Z" transform="translate(-121.391 -107.53)"/>
    <path class="cls-2" d="M516.955,169.739h2.027l4.835,11.641,4.853-11.641h1.877v13.234h-1.308V171.048H529.2l-4.814,11.925h-1.119L518.3,171.048h-.037v11.925h-1.308Z" transform="translate(-121.391 -107.53)"/>
    <path class="cls-2" d="M543.27,181.285a5.21,5.21,0,0,0,2.919.778c1.629,0,2.976-.834,2.976-2.711,0-2.6-6.067-2.92-6.067-6.389,0-2.123,1.859-3.45,4.19-3.45a7.9,7.9,0,0,1,2.6.436l-.209,1.194a5.411,5.411,0,0,0-2.409-.492c-1.364,0-2.861.568-2.861,2.276,0,2.654,6.065,2.672,6.065,6.54,0,2.674-2.294,3.736-4.34,3.736a7.576,7.576,0,0,1-3-.568Z" transform="translate(-121.391 -107.53)"/>
  </g>
</svg>
