<?xml version="1.0" encoding="utf-8"?>
<!-- Generator: Adobe Illustrator 19.0.0, SVG Export Plug-In . SVG Version: 6.00 Build 0)  -->
<svg version="1.1" id="layer" xmlns="http://www.w3.org/2000/svg" xmlns:xlink="http://www.w3.org/1999/xlink" x="0px" y="0px"
	 viewBox="-153 -46 652 652" style="enable-background:new -153 -46 652 652;" xml:space="preserve">
<style type="text/css">
	.st0{fill:#0068B6;}
	.st1{fill:none;stroke:#FFFFFF;stroke-width:5.5034;stroke-miterlimit:3.864;}
	.st2{fill:#FFFFFF;}
	.st3{fill:none;stroke:#0068B6;stroke-width:0;stroke-miterlimit:3.864;}
	.st4{fill-rule:evenodd;clip-rule:evenodd;fill:#0068B6;}
</style>
<polygon class="st0" points="168.1,25.4 -60.6,254 -39.2,275.4 -60.6,296.7 168.1,525.4 396.7,296.7 375.4,275.4 396.7,254 "/>
<polygon class="st0" points="-46.8,296.7 168.1,81.9 382.9,296.7 168.1,511.5 "/>
<polygon class="st1" points="-46.8,296.7 168.1,81.9 382.9,296.7 168.1,511.5 "/>
<polygon class="st0" points="-46.8,254.1 168.1,39.3 382.9,254.1 168.1,469 "/>
<polygon class="st1" points="-46.8,254.1 168.1,39.3 382.9,254.1 168.1,469 "/>
<polygon class="st0" points="-5,254.9 168.1,81.9 341.1,254.9 168.1,427.9 "/>
<polygon class="st1" points="-5,254.9 168.1,81.9 341.1,254.9 168.1,427.9 "/>
<rect x="11.7" y="202.3" class="st2" width="312.7" height="102.1"/>
<g>
	<path class="st0" d="M68.7,297.2l25.8-87.6H66.7c0,0-8.8,37.6-9.9,44.7h-0.3c-1-7.1-8.8-44.7-8.8-44.7H20.8l21.7,87.6H68.7z"/>
	<path class="st3" d="M68.7,297.2l25.8-87.6H66.7c0,0-8.8,37.6-9.9,44.7h-0.3c-1-7.1-8.8-44.7-8.8-44.7H20.8l21.7,87.6H68.7z"/>
	<polygon class="st0" points="104.4,297.2 152,297.2 152,276.5 130,276.5 130,263.1 146.7,263.1 146.7,242.4 130,242.4 130,230.2 
		152,230.2 152,209.6 104.4,209.6 	"/>
	<polygon class="st3" points="104.4,297.2 152,297.2 152,276.5 130,276.5 130,263.1 146.7,263.1 146.7,242.4 130,242.4 130,230.2 
		152,230.2 152,209.6 104.4,209.6 	"/>
	<polygon class="st4" points="237.8,297.2 214.9,251.9 235.4,209.6 208.4,209.6 194.3,240.6 194,240.6 194,240.9 194.2,240.6 
		194.1,240.6 194.2,240.6 194.2,209.6 168.6,209.6 168.6,297.2 194.2,297.2 194.2,263.2 194.5,263.2 194.3,263.2 210.3,297.2 	"/>
	<polygon class="st3" points="237.8,297.2 214.9,251.9 235.4,209.6 208.4,209.6 194.3,240.6 194,240.6 194,240.9 194.2,240.6 
		194.1,240.6 194.2,240.6 194.2,209.6 168.6,209.6 168.6,297.2 194.2,297.2 194.2,263.2 194.5,263.2 194.3,263.2 210.3,297.2 	"/>
	<path class="st4" d="M315.4,297.2l-20.1-87.6H264l-22.7,87.6h26.4l2.1-11.3H287l1.9,11.3H315.4z M273.1,264.2l3.5-17.2
		c1-5.5,1.6-11,2.4-16.5h0.3c0.6,5.5,1.1,11,1.9,16.5l2.8,17.2H273.1z"/>
	<path class="st3" d="M315.4,297.2l-20.1-87.6H264l-22.7,87.6h26.4l2.1-11.3H287l1.9,11.3H315.4z M273.1,264.2l3.5-17.2
		c1-5.5,1.6-11,2.4-16.5h0.3c0.6,5.5,1.1,11,1.9,16.5l2.8,17.2H273.1z"/>
</g>
</svg>
